<?xml version="1.0" standalone="no"?><!DOCTYPE svg PUBLIC "-//W3C//DTD SVG 1.1//EN" "http://www.w3.org/Graphics/SVG/1.1/DTD/svg11.dtd"><svg t="1557555970802" class="icon" style="" viewBox="0 0 1024 1024" version="1.1" xmlns="http://www.w3.org/2000/svg" p-id="1198" xmlns:xlink="http://www.w3.org/1999/xlink" width="16" height="16"><defs><style type="text/css"></style></defs><path d="M568.24560594 650.70166438c0 20.58589219-11.64284062 37.79704687-28.1228025 47.58378281l0 121.153035-56.24560594 0 0-121.09678969c-16.53620813-9.786735-28.1228025-26.99789063-28.1228025-47.64002813 0-31.04757469 25.14178594-56.24560594 56.24560594-56.24560593 30.99132844 0 56.24560594 25.14178594 56.24560594 56.24560593zM877.25896438 509.4127025l-1e-8 398.21888906c0 46.51511625-37.85329313 84.36840844-84.36840843 84.36840844l-561.78111094 0c-46.51511625 0-84.36840844-37.85329313-84.36840844-84.36840844l0-398.21888906c0-46.51511625 37.85329313-84.36840844 84.36840844-84.36840844l505.87297875 0 0-111.81626437c0-124.07780625-100.90461656-224.98242281-224.98242281-224.98242281s-224.98242281 100.90461656-224.98242281 224.98242281l-56.24560594 0c0-155.06913563 126.15889406-281.22802875 281.22802875-281.22802875s281.22802875 126.15889406 281.22802875 281.22802875l0 111.81626437c46.34637937 0.22498219 84.03093469 37.96578375 84.03093469 84.36840844zM821.01335844 509.4127025c0-15.52378688-12.65526094-28.1228025-28.1228025-28.1228025l-561.78111094 0c-15.46754156 0-28.1228025 12.59901562-28.1228025 28.1228025l0 398.21888906c0 15.52378688 12.65526094 28.1228025 28.1228025 28.1228025l561.78111094 0c15.46754156 0 28.1228025-12.59901562 28.1228025-28.1228025l0-398.21888906z" fill="#ffffff" p-id="1199"></path></svg>