<?xml version="1.0" standalone="no"?><!DOCTYPE svg PUBLIC "-//W3C//DTD SVG 1.1//EN" "http://www.w3.org/Graphics/SVG/1.1/DTD/svg11.dtd"><svg t="1557113745986" class="icon" style="" viewBox="0 0 1024 1024" version="1.1" xmlns="http://www.w3.org/2000/svg" p-id="820" xmlns:xlink="http://www.w3.org/1999/xlink" width="32" height="32"><defs><style type="text/css"></style></defs><path d="M584.47844507 737.92061659C579.31656557 663.60369389 548.34528855 590.77169542 491.49390335 533.92031022s-129.68338367-87.82266222-204.14172773-92.98454173c-4.24264069-0.28284271-8.06101731 2.96984848-8.48528138 7.35391053l-4.87903679 55.79072503c-0.35355339 4.45477272 2.96984848 8.34386002 7.42462121 8.69741341C339.39523471 516.45477272 396.24661992 540.49640328 440.5822151 584.83199846s68.37722574 101.18698039 72.12489168 159.09902577c0.35355339 4.45477272 4.24264069 7.77817459 8.69741341 7.4246212l55.79072504-4.87903679c4.31335137-0.35355339 7.56604256-4.17193001 7.28319984-8.55599205zM766.55844123 721.86929266C756.09326087 606.89373004 706.8786289 494.74659454 618.77312396 406.6410896s-200.25264043-137.32013691-315.29891373-147.85602794c-4.38406204-0.42426407-8.27314934 2.8991378-8.69741341 7.28319984l-4.87903679 55.79072504c-0.42426407 4.38406204 2.8991378 8.27314934 7.21248917 8.62670273C395.89306653 339.60736675 492.2717208 381.96306294 567.86143571 457.55277785s117.9454111 171.96836918 126.9963779 270.68047584c0.42426407 4.38406204 4.24264069 7.63675324 8.62670274 7.21248916l55.79072503-4.87903679c4.38406204-0.42426407 7.70746391-4.31335137 7.28319985-8.6974134z" p-id="821"></path><path d="M947.36564518 706.10081144C931.95071735 549.83021279 864.35130907 397.66083348 744.63813101 277.94765543c-118.9353606-118.9353606-269.8319477-186.39334752-425.04188617-202.44467146-4.45477272-0.49497475-8.4145707 2.75771645-8.83883477 7.28319985l-4.87903679 55.79072504c-0.35355339 4.31335137 2.82842712 8.20243866 7.07106782 8.62670273C452.10805563 161.77001128 587.16545084 222.29835175 693.72644276 328.85934367c107.33880938 107.33880938 167.93786053 243.59828612 181.9385748 383.74685015 0.42426407 4.38406204 4.31335137 7.56604256 8.69741341 7.14177849l55.79072504-4.87903679c4.45477272-0.35355339 7.70746391-4.31335137 7.21248917-8.76812408z" p-id="822"></path><path d="M323.9095962 700.0904038m-45.25483399-45.254834a64 64 0 1 0 90.50966799 90.50966799 64 64 0 1 0-90.50966799-90.50966799Z" p-id="823"></path></svg>